<svg width="75" height="89" viewBox="0 0 75 89" fill="none" xmlns="http://www.w3.org/2000/svg">
<path d="M25.5 18H18.5V38.5L25.5 45.5V18Z" fill="#2312DD"/>
<path d="M18.5 9L12 16H31C33.0165 16.1062 33.9682 16.3516 34.5 18V22.5C36.1485 22.7355 36.9442 22.4059 38 20.5V12C36.9296 9.7729 35.8885 9.20132 33.5 9H18.5Z" fill="#2312DD"/>
<path d="M28 32V25H35.5C38.0246 24.5128 39.1152 23.5322 40.5 20.5V31C36.2702 32.475 33.3311 32.3574 28 32Z" fill="#2312DD"/>
<path d="M40.5 7L47.5 0V24C45.9996 28.593 44.3463 30.0717 40.5 31.5V7Z" fill="#09FF00"/>
<path d="M47.5 34.5V29C45.1885 31.3955 43.7879 32.5327 40.5 33C41.4149 39.7983 43.2492 42.2346 49 44H56L63 36.5H50.5C49.02 36.5799 48.4203 35.9812 47.5 34.5Z" fill="#09FF00"/>
<path d="M25.136 77.504V77.744C24.864 77.76 24.66 77.808 24.524 77.888C24.388 77.968 24.296 78.1 24.248 78.284C24.208 78.46 24.188 78.712 24.188 79.04V86.048C24.124 86.048 24.06 86.048 23.996 86.048C23.932 86.048 23.864 86.048 23.792 86.048L18.704 78.656V84.416C18.704 84.752 18.728 85.016 18.776 85.208C18.824 85.392 18.928 85.524 19.088 85.604C19.248 85.684 19.492 85.736 19.82 85.76V86C19.668 85.984 19.472 85.976 19.232 85.976C19 85.968 18.78 85.964 18.572 85.964C18.372 85.964 18.172 85.968 17.972 85.976C17.772 85.976 17.608 85.984 17.48 86V85.76C17.744 85.736 17.944 85.688 18.08 85.616C18.216 85.536 18.308 85.404 18.356 85.22C18.404 85.036 18.428 84.784 18.428 84.464V78.776C18.428 78.48 18.404 78.264 18.356 78.128C18.308 77.984 18.216 77.888 18.08 77.84C17.944 77.784 17.744 77.752 17.48 77.744V77.504C17.608 77.512 17.772 77.52 17.972 77.528C18.172 77.536 18.372 77.54 18.572 77.54C18.748 77.54 18.92 77.536 19.088 77.528C19.256 77.52 19.404 77.512 19.532 77.504L23.912 83.768V79.088C23.912 78.744 23.884 78.48 23.828 78.296C23.78 78.112 23.676 77.98 23.516 77.9C23.356 77.812 23.116 77.76 22.796 77.744V77.504C22.94 77.512 23.132 77.52 23.372 77.528C23.612 77.536 23.836 77.54 24.044 77.54C24.244 77.54 24.444 77.536 24.644 77.528C24.844 77.52 25.008 77.512 25.136 77.504ZM27.1663 76.784C27.4143 76.784 27.6223 76.864 27.7903 77.024C27.9583 77.176 28.0423 77.368 28.0423 77.6C28.0423 77.832 27.9583 78.028 27.7903 78.188C27.6223 78.34 27.4143 78.416 27.1663 78.416C26.9183 78.416 26.7103 78.34 26.5423 78.188C26.3743 78.028 26.2903 77.832 26.2903 77.6C26.2903 77.368 26.3743 77.176 26.5423 77.024C26.7103 76.864 26.9183 76.784 27.1663 76.784ZM27.8863 79.676V84.884C27.8863 85.22 27.9503 85.448 28.0783 85.568C28.2143 85.688 28.4383 85.748 28.7503 85.748V86C28.6143 85.992 28.4023 85.984 28.1143 85.976C27.8343 85.96 27.5463 85.952 27.2503 85.952C26.9703 85.952 26.6823 85.96 26.3863 85.976C26.0903 85.984 25.8703 85.992 25.7263 86V85.748C26.0383 85.748 26.2583 85.688 26.3863 85.568C26.5223 85.448 26.5903 85.22 26.5903 84.884V81.116C26.5903 80.756 26.5303 80.492 26.4103 80.324C26.2903 80.148 26.0623 80.06 25.7263 80.06V79.808C25.9823 79.832 26.2303 79.844 26.4703 79.844C26.7423 79.844 26.9943 79.832 27.2263 79.808C27.4663 79.776 27.6863 79.732 27.8863 79.676ZM31.58 88.256C31.132 88.256 30.716 88.212 30.332 88.124C29.956 88.036 29.652 87.9 29.42 87.716C29.196 87.54 29.084 87.312 29.084 87.032C29.084 86.768 29.196 86.536 29.42 86.336C29.644 86.136 29.96 85.984 30.368 85.88L30.452 86.072C30.284 86.144 30.152 86.26 30.056 86.42C29.968 86.58 29.924 86.756 29.924 86.948C29.924 87.3 30.088 87.572 30.416 87.764C30.744 87.956 31.176 88.052 31.712 88.052C32.072 88.052 32.412 88.004 32.732 87.908C33.06 87.82 33.324 87.672 33.524 87.464C33.732 87.256 33.836 86.988 33.836 86.66C33.836 86.404 33.744 86.188 33.56 86.012C33.376 85.844 33.012 85.76 32.468 85.76H31.628C31.348 85.76 31.088 85.736 30.848 85.688C30.608 85.64 30.412 85.548 30.26 85.412C30.116 85.268 30.044 85.068 30.044 84.812C30.044 84.524 30.164 84.252 30.404 83.996C30.644 83.74 31.048 83.488 31.616 83.24L31.76 83.348C31.528 83.476 31.32 83.608 31.136 83.744C30.96 83.872 30.872 84.032 30.872 84.224C30.872 84.48 31.056 84.608 31.424 84.608H32.852C33.228 84.608 33.568 84.66 33.872 84.764C34.176 84.86 34.42 85.016 34.604 85.232C34.788 85.448 34.88 85.732 34.88 86.084C34.88 86.46 34.756 86.812 34.508 87.14C34.268 87.476 33.904 87.744 33.416 87.944C32.928 88.152 32.316 88.256 31.58 88.256ZM31.652 83.444C31.244 83.444 30.872 83.38 30.536 83.252C30.2 83.116 29.936 82.908 29.744 82.628C29.552 82.348 29.456 81.988 29.456 81.548C29.456 81.108 29.552 80.748 29.744 80.468C29.936 80.18 30.2 79.972 30.536 79.844C30.872 79.708 31.244 79.64 31.652 79.64C32.076 79.64 32.452 79.708 32.78 79.844C33.108 79.972 33.368 80.18 33.56 80.468C33.752 80.748 33.848 81.108 33.848 81.548C33.848 81.988 33.752 82.348 33.56 82.628C33.368 82.908 33.108 83.116 32.78 83.252C32.452 83.38 32.076 83.444 31.652 83.444ZM31.652 83.228C31.932 83.228 32.148 83.108 32.3 82.868C32.452 82.628 32.528 82.188 32.528 81.548C32.528 80.908 32.452 80.468 32.3 80.228C32.148 79.98 31.932 79.856 31.652 79.856C31.388 79.856 31.176 79.98 31.016 80.228C30.856 80.468 30.776 80.908 30.776 81.548C30.776 82.188 30.856 82.628 31.016 82.868C31.176 83.108 31.388 83.228 31.652 83.228ZM33.428 80.648L33.212 80.564C33.324 80.284 33.516 80.04 33.788 79.832C34.06 79.624 34.344 79.52 34.64 79.52C34.864 79.52 35.04 79.584 35.168 79.712C35.304 79.832 35.372 80.004 35.372 80.228C35.372 80.476 35.304 80.652 35.168 80.756C35.04 80.86 34.904 80.912 34.76 80.912C34.632 80.912 34.512 80.868 34.4 80.78C34.296 80.692 34.236 80.556 34.22 80.372C34.204 80.18 34.264 79.936 34.4 79.64L34.532 79.688C34.212 79.816 33.976 79.952 33.824 80.096C33.68 80.232 33.548 80.416 33.428 80.648ZM38.593 79.64C39.297 79.64 39.849 79.852 40.249 80.276C40.649 80.7 40.849 81.372 40.849 82.292H36.709L36.685 82.064H39.577C39.585 81.672 39.553 81.312 39.481 80.984C39.409 80.648 39.297 80.38 39.145 80.18C38.993 79.98 38.793 79.88 38.545 79.88C38.201 79.88 37.901 80.064 37.645 80.432C37.397 80.792 37.245 81.372 37.189 82.172L37.225 82.232C37.217 82.344 37.209 82.468 37.201 82.604C37.193 82.732 37.189 82.86 37.189 82.988C37.189 83.54 37.273 84.004 37.441 84.38C37.609 84.756 37.829 85.04 38.101 85.232C38.373 85.416 38.649 85.508 38.929 85.508C39.145 85.508 39.353 85.476 39.553 85.412C39.761 85.34 39.957 85.224 40.141 85.064C40.325 84.896 40.489 84.668 40.633 84.38L40.873 84.476C40.777 84.748 40.629 85.016 40.429 85.28C40.229 85.544 39.973 85.76 39.661 85.928C39.349 86.088 38.985 86.168 38.569 86.168C38.009 86.168 37.521 86.044 37.105 85.796C36.689 85.54 36.369 85.176 36.145 84.704C35.921 84.232 35.809 83.672 35.809 83.024C35.809 82.312 35.925 81.704 36.157 81.2C36.389 80.696 36.713 80.312 37.129 80.048C37.553 79.776 38.041 79.64 38.593 79.64ZM45.5161 79.64C45.7481 79.64 45.9441 79.688 46.1041 79.784C46.2721 79.88 46.3961 80.004 46.4761 80.156C46.5641 80.3 46.6081 80.464 46.6081 80.648C46.6081 80.88 46.5361 81.08 46.3921 81.248C46.2561 81.408 46.0721 81.488 45.8401 81.488C45.6401 81.488 45.4681 81.428 45.3241 81.308C45.1881 81.188 45.1201 81.024 45.1201 80.816C45.1201 80.64 45.1641 80.492 45.2521 80.372C45.3481 80.244 45.4561 80.144 45.5761 80.072C45.4961 80.008 45.4001 79.98 45.2881 79.988C45.0721 79.996 44.8721 80.068 44.6881 80.204C44.5041 80.332 44.3481 80.5 44.2201 80.708C44.0921 80.908 43.9921 81.124 43.9201 81.356C43.8481 81.588 43.8121 81.804 43.8121 82.004V84.764C43.8121 85.156 43.9201 85.42 44.1361 85.556C44.3521 85.684 44.6521 85.748 45.0361 85.748V86C44.8521 85.992 44.5881 85.984 44.2441 85.976C43.9081 85.96 43.5521 85.952 43.1761 85.952C42.8881 85.952 42.6001 85.96 42.3121 85.976C42.0241 85.984 41.8041 85.992 41.6521 86V85.748C41.9641 85.748 42.1841 85.688 42.3121 85.568C42.4481 85.448 42.5161 85.22 42.5161 84.884V81.116C42.5161 80.756 42.4561 80.492 42.3361 80.324C42.2161 80.148 41.9881 80.06 41.6521 80.06V79.808C41.9081 79.832 42.1561 79.844 42.3961 79.844C42.6681 79.844 42.9201 79.832 43.1521 79.808C43.3921 79.776 43.6121 79.732 43.8121 79.676V81.056C43.9081 80.824 44.0361 80.6 44.1961 80.384C44.3561 80.168 44.5481 79.992 44.7721 79.856C44.9961 79.712 45.2441 79.64 45.5161 79.64ZM48.5179 76.784C48.7659 76.784 48.9739 76.864 49.1419 77.024C49.3099 77.176 49.3939 77.368 49.3939 77.6C49.3939 77.832 49.3099 78.028 49.1419 78.188C48.9739 78.34 48.7659 78.416 48.5179 78.416C48.2699 78.416 48.0619 78.34 47.8939 78.188C47.7259 78.028 47.6419 77.832 47.6419 77.6C47.6419 77.368 47.7259 77.176 47.8939 77.024C48.0619 76.864 48.2699 76.784 48.5179 76.784ZM49.2379 79.676V84.884C49.2379 85.22 49.3019 85.448 49.4299 85.568C49.5659 85.688 49.7899 85.748 50.1019 85.748V86C49.9659 85.992 49.7539 85.984 49.4659 85.976C49.1859 85.96 48.8979 85.952 48.6019 85.952C48.3219 85.952 48.0339 85.96 47.7379 85.976C47.4419 85.984 47.2219 85.992 47.0779 86V85.748C47.3899 85.748 47.6099 85.688 47.7379 85.568C47.8739 85.448 47.9419 85.22 47.9419 84.884V81.116C47.9419 80.756 47.8819 80.492 47.7619 80.324C47.6419 80.148 47.4139 80.06 47.0779 80.06V79.808C47.3339 79.832 47.5819 79.844 47.8219 79.844C48.0939 79.844 48.3459 79.832 48.5779 79.808C48.8179 79.776 49.0379 79.732 49.2379 79.676ZM52.3676 86.084C52.0316 86.084 51.7436 86.02 51.5036 85.892C51.2636 85.764 51.0836 85.588 50.9636 85.364C50.8436 85.14 50.7836 84.884 50.7836 84.596C50.7836 84.244 50.8636 83.96 51.0236 83.744C51.1836 83.52 51.3876 83.34 51.6356 83.204C51.8916 83.068 52.1596 82.956 52.4396 82.868C52.7276 82.772 52.9956 82.684 53.2436 82.604C53.4996 82.516 53.7076 82.416 53.8676 82.304C54.0356 82.192 54.1196 82.044 54.1196 81.86V81.044C54.1196 80.756 54.0716 80.528 53.9756 80.36C53.8876 80.184 53.7636 80.06 53.6036 79.988C53.4516 79.916 53.2676 79.88 53.0516 79.88C52.8676 79.88 52.6716 79.908 52.4636 79.964C52.2556 80.012 52.0916 80.112 51.9716 80.264C52.1476 80.312 52.2916 80.408 52.4036 80.552C52.5236 80.688 52.5836 80.86 52.5836 81.068C52.5836 81.292 52.5076 81.468 52.3556 81.596C52.2116 81.724 52.0276 81.788 51.8036 81.788C51.5556 81.788 51.3716 81.712 51.2516 81.56C51.1316 81.4 51.0716 81.216 51.0716 81.008C51.0716 80.792 51.1236 80.616 51.2276 80.48C51.3396 80.344 51.4836 80.216 51.6596 80.096C51.8516 79.968 52.0956 79.86 52.3916 79.772C52.6956 79.684 53.0316 79.64 53.3996 79.64C53.7436 79.64 54.0396 79.68 54.2876 79.76C54.5436 79.832 54.7556 79.952 54.9236 80.12C55.1236 80.304 55.2556 80.536 55.3196 80.816C55.3836 81.088 55.4156 81.42 55.4156 81.812V85.124C55.4156 85.324 55.4396 85.468 55.4876 85.556C55.5436 85.636 55.6316 85.676 55.7516 85.676C55.8316 85.676 55.9076 85.656 55.9796 85.616C56.0596 85.576 56.1516 85.516 56.2556 85.436L56.3756 85.64C56.2076 85.776 56.0356 85.884 55.8596 85.964C55.6916 86.044 55.4756 86.084 55.2116 86.084C54.9556 86.084 54.7476 86.044 54.5876 85.964C54.4276 85.884 54.3076 85.768 54.2276 85.616C54.1556 85.464 54.1196 85.276 54.1196 85.052C53.9116 85.388 53.6636 85.644 53.3756 85.82C53.0876 85.996 52.7516 86.084 52.3676 86.084ZM52.9436 85.508C53.1676 85.508 53.3756 85.444 53.5676 85.316C53.7676 85.188 53.9516 84.996 54.1196 84.74V82.352C54.0316 82.48 53.9036 82.592 53.7356 82.688C53.5676 82.776 53.3876 82.868 53.1956 82.964C53.0036 83.06 52.8196 83.172 52.6436 83.3C52.4756 83.42 52.3356 83.576 52.2236 83.768C52.1116 83.96 52.0556 84.204 52.0556 84.5C52.0556 84.812 52.1356 85.06 52.2956 85.244C52.4556 85.42 52.6716 85.508 52.9436 85.508Z" fill="#09FF00"/>
<path d="M6.80664 64.9316H3.18359V62.6465H6.80664C7.36654 62.6465 7.82227 62.5553 8.17383 62.373C8.52539 62.1842 8.78255 61.9238 8.94531 61.5918C9.10807 61.2598 9.18945 60.8854 9.18945 60.4688C9.18945 60.0456 9.10807 59.6517 8.94531 59.2871C8.78255 58.9225 8.52539 58.6296 8.17383 58.4082C7.82227 58.1868 7.36654 58.0762 6.80664 58.0762H4.19922V70H1.26953V55.7812H6.80664C7.91992 55.7812 8.8737 55.9831 9.66797 56.3867C10.4688 56.7839 11.0807 57.334 11.5039 58.0371C11.9271 58.7402 12.1387 59.5443 12.1387 60.4492C12.1387 61.3672 11.9271 62.1615 11.5039 62.832C11.0807 63.5026 10.4688 64.0202 9.66797 64.3848C8.8737 64.7493 7.91992 64.9316 6.80664 64.9316ZM16.7969 61.7383V70H13.9844V59.4336H16.6309L16.7969 61.7383ZM19.9805 59.3652L19.9316 61.9727C19.7949 61.9531 19.6289 61.9368 19.4336 61.9238C19.2448 61.9043 19.0723 61.8945 18.916 61.8945C18.5189 61.8945 18.1738 61.9466 17.8809 62.0508C17.5944 62.1484 17.3535 62.2949 17.1582 62.4902C16.9694 62.6855 16.8262 62.9232 16.7285 63.2031C16.6374 63.4831 16.5853 63.8021 16.5723 64.1602L16.0059 63.9844C16.0059 63.3008 16.0742 62.6725 16.2109 62.0996C16.3477 61.5202 16.5462 61.0156 16.8066 60.5859C17.0736 60.1562 17.3991 59.8242 17.7832 59.5898C18.1673 59.3555 18.6068 59.2383 19.1016 59.2383C19.2578 59.2383 19.4173 59.2513 19.5801 59.2773C19.7428 59.2969 19.8763 59.3262 19.9805 59.3652ZM20.5664 64.8242V64.6191C20.5664 63.8444 20.6771 63.1315 20.8984 62.4805C21.1198 61.8229 21.4421 61.2533 21.8652 60.7715C22.2884 60.2897 22.8092 59.9154 23.4277 59.6484C24.0462 59.375 24.7559 59.2383 25.5566 59.2383C26.3574 59.2383 27.0703 59.375 27.6953 59.6484C28.3203 59.9154 28.8444 60.2897 29.2676 60.7715C29.6973 61.2533 30.0228 61.8229 30.2441 62.4805C30.4655 63.1315 30.5762 63.8444 30.5762 64.6191V64.8242C30.5762 65.5924 30.4655 66.3053 30.2441 66.9629C30.0228 67.6139 29.6973 68.1836 29.2676 68.6719C28.8444 69.1536 28.3236 69.528 27.7051 69.7949C27.0866 70.0618 26.377 70.1953 25.5762 70.1953C24.7754 70.1953 24.0625 70.0618 23.4375 69.7949C22.819 69.528 22.2949 69.1536 21.8652 68.6719C21.4421 68.1836 21.1198 67.6139 20.8984 66.9629C20.6771 66.3053 20.5664 65.5924 20.5664 64.8242ZM23.3789 64.6191V64.8242C23.3789 65.2669 23.418 65.6803 23.4961 66.0645C23.5742 66.4486 23.6979 66.7871 23.8672 67.0801C24.043 67.3665 24.2708 67.5911 24.5508 67.7539C24.8307 67.9167 25.1725 67.998 25.5762 67.998C25.9668 67.998 26.3021 67.9167 26.582 67.7539C26.862 67.5911 27.0866 67.3665 27.2559 67.0801C27.4251 66.7871 27.5488 66.4486 27.627 66.0645C27.7116 65.6803 27.7539 65.2669 27.7539 64.8242V64.6191C27.7539 64.1895 27.7116 63.7858 27.627 63.4082C27.5488 63.0241 27.4219 62.6855 27.2461 62.3926C27.0768 62.0931 26.8522 61.8587 26.5723 61.6895C26.2923 61.5202 25.9538 61.4355 25.5566 61.4355C25.1595 61.4355 24.821 61.5202 24.541 61.6895C24.2676 61.8587 24.043 62.0931 23.8672 62.3926C23.6979 62.6855 23.5742 63.0241 23.4961 63.4082C23.418 63.7858 23.3789 64.1895 23.3789 64.6191ZM41.6211 67.7148V70H34.4629V67.7148H41.6211ZM35.4102 55.7812V70H32.4805V55.7812H35.4102ZM55.8398 61.6895V70H53.0273V59.4336H55.6641L55.8398 61.6895ZM55.4297 64.3457H54.668C54.668 63.5645 54.7689 62.8613 54.9707 62.2363C55.1725 61.6048 55.4557 61.0677 55.8203 60.625C56.1849 60.1758 56.6178 59.834 57.1191 59.5996C57.627 59.3587 58.1934 59.2383 58.8184 59.2383C59.3132 59.2383 59.7656 59.3099 60.1758 59.4531C60.5859 59.5964 60.9375 59.8242 61.2305 60.1367C61.5299 60.4492 61.7578 60.8626 61.9141 61.377C62.0768 61.8913 62.1582 62.5195 62.1582 63.2617V70H59.3262V63.252C59.3262 62.7832 59.2611 62.4186 59.1309 62.1582C59.0007 61.8978 58.8086 61.7155 58.5547 61.6113C58.3073 61.5007 58.0013 61.4453 57.6367 61.4453C57.2591 61.4453 56.9303 61.5202 56.6504 61.6699C56.377 61.8197 56.1491 62.028 55.9668 62.2949C55.791 62.5553 55.6576 62.8613 55.5664 63.2129C55.4753 63.5645 55.4297 63.9421 55.4297 64.3457ZM67.1094 54.9902V70H64.2969V54.9902H67.1094ZM73.7695 59.4336L69.1797 64.668L66.7188 67.1582L65.6934 65.127L67.6465 62.6465L70.3906 59.4336H73.7695ZM70.8496 70L67.7246 65.1172L69.668 63.418L74.0918 70H70.8496Z" fill="#2312DD"/>
<path d="M44.5 54.5C45.708 53.5277 46.3587 53.6891 47.5 54.5" stroke="#2312DD"/>
<path d="M43 53C45.416 51.5489 46.7173 51.7899 49 53" stroke="#2312DD"/>
<path d="M42 51C45.2213 49.5489 46.9564 49.7899 50 51" stroke="#2312DD"/>
<path d="M46.5 56C47.8807 56 49 57.1193 49 58.5C49 59.317 48.6061 60.0399 48 60.4961V70H45V60.4961C44.3939 60.0399 44 59.317 44 58.5C44 57.1193 45.1193 56 46.5 56ZM46.5 57.667C46.0398 57.667 45.667 58.0398 45.667 58.5C45.667 58.9602 46.0398 59.333 46.5 59.333C46.9602 59.333 47.333 58.9602 47.333 58.5C47.333 58.0398 46.9602 57.667 46.5 57.667Z" fill="#09FF00"/>
</svg>
